<svg id="Layer_1" data-name="Layer 1" xmlns="http://www.w3.org/2000/svg" viewBox="0 0 650.49 437.68"><defs><style>.cls-1{fill:#faa73e;}.cls-2{font-size:42.03px;fill:#231f20;font-family:SVN-Beloved;}.cls-3{fill:#018744;}</style></defs><path class="cls-1" d="M868.56,551c-.09.28-.29.85-.62,1.76-9.27,24.69-18.32,63.55-24.64,88.94-.74,2.9-1.35,5.37-1.85,7.5-11.08.76-21.63,1.66-31.34,2.63-.47-4.46.11-9.76,1.73-16,15.14-58,19.87-76.8,23-91.5.36-1.51,1.66-4.81,6.73-4.88.22,0,20.19-3.35,25.74,4.1A8.14,8.14,0,0,1,868.56,551Z" transform="translate(-577.15 -394.45)"/><path class="cls-1" d="M941.12,567.43c2.31-7.22,1.76-14-1.68-19.38s-9.53-8.68-16.68-8.86c-.4,0-.8,0-1.2,0-15.7.22-45.83,12.64-59.07,57.81-5,17.23-4.71,36.42.15,50.24,8.45-.51,17.11-.91,25.88-1.26-1-4.69-.67-16.48,7.43-46,3.38-12.34,7.07-25.66,11.26-34.39,0,.13.1.23.15.35,2,4.32,7.5,6.58,11.94,7.73-.93,4.91-3,12.39-5.47,21.17-.9,3.28-1.91,6.89-3,10.76-3.09,11.26-8.93,32.33-15.53,40.13,9.93-.33,19.94-.58,29.95-.73,7.85-8.68,14.8-20.52,19.46-36.42C949.7,591.39,948.47,577.59,941.12,567.43Z" transform="translate(-577.15 -394.45)"/><path class="cls-1" d="M1211.62,550a38.16,38.16,0,0,0-4.89-5.88,101.08,101.08,0,0,0-30.38-21.8,108,108,0,0,0-50.51-10.24,99.53,99.53,0,0,0-81.6,51c-4.92,9-8.52,18.72-12.64,28.1a106.81,106.81,0,0,1-5.85,12c-.6,1-5.12,7.77-6,3.35a4.56,4.56,0,0,1,.28-2.18c4.14-13.89,21.3-47.86-3.37-51.7l-1.29-.18c-3.4-.41-9.35,2-12.62,4.88-2.75,2.43-6.87-.57-5.61-4.06l0-.07c2.58-7.9-28.14-9.59-28.32-8.84-4.41,19.75-13.6,48-18.93,69.93-3.48,14.25-2.57,23.52.69,29.15a3.45,3.45,0,0,0,2.92,1.71c4.14.09,8.38.22,12.68.4a3.55,3.55,0,0,0,3.6-2.82c.14-.66.3-1.39.48-2.17a2.68,2.68,0,0,1,.07-.27c14.69-49.54,25.9-74.12,34.54-74.12,5.88,0-2.21,9.22-10.48,36.09-6.38,20.82-4.85,35.81-1.32,43.2a3.49,3.49,0,0,0,2.82,1.94l11.39,1.09a3.43,3.43,0,0,0,2.36-.63,63.42,63.42,0,0,0,8.28-8c6.07-6.58,9.51-13.26,15.5-22.94,4-6.42,7.34-11.8,7.44-12,9.58-15.1,17.43-25.21,34.55-41.88,15.16-14.73,33.28-21.43,53.87-23.45a130.51,130.51,0,0,1,46.09,3.7c4.64,1.22,9.35,3.71,14,4.58a229.68,229.68,0,0,0-43.3-4.08c-15.27.11-30.73,2.46-44.86,8.57-8.08,3.51-14.54,8.59-19.2,16.18-5.44,8.87-3.62,21.2,5,26.76,5.89,3.78,14,6.7,25,6.55,30-.41,50.22-19.22,67-35.7a41.62,41.62,0,0,1,31.19-12.37c.9,0,2.41.54,2.92-.11a.66.66,0,0,0,.13-.33C1213.42,552.6,1212.06,550.73,1211.62,550Z" transform="translate(-577.15 -394.45)"/><text class="cls-2" transform="translate(140.84 421.29) scale(1.04 1)">Ngon khó cưỡng, dinh dưỡng vượt trội</text><path class="cls-1" d="M663.5,708.78" transform="translate(-577.15 -394.45)"/><path class="cls-3" d="M879.47,532.56a56.54,56.54,0,0,1-18.08-14c-4.57-5.34-8.13-11.52-7.57-19a10.72,10.72,0,0,1,5.61-8.94A14.82,14.82,0,0,1,870,488.75a14,14,0,0,1,9.39,7.14c2.05,3.54,4,7.14,6,10.49,5.27,8.7,11.08,15.78,20.59,16.14a.5.5,0,0,0,.27-.92c-6.08-3.23-13.28-8.1-18.08-16.71a32.51,32.51,0,0,1-1.51-3c-1.59-3.58-3.17-7.26-6-10a18,18,0,0,0-5.32-3.55,30.33,30.33,0,0,0-6.12-1.89c-.92-.19-1.87-.41-2.81-.53l-3.17-.41c-.13,0-.47,0-.55-.14s.08-.2.19-.23a34.47,34.47,0,0,1,3.56-.81,40.91,40.91,0,0,1,16.05,1.21,28,28,0,0,1,6.68,2.86,18.83,18.83,0,0,1,5.29,4.65,16.23,16.23,0,0,1,2.76,5.51c.94,3.33,1,6.93,2.27,10.14a12.69,12.69,0,0,0,4.49,5.53c6.68,4.69,15.24,3.2,18.28,8.53,2.25,3.91-.47,8-3.9,10.26-6.33,4.16-14.65,4.91-21.85,4.34A48.08,48.08,0,0,1,879.47,532.56Z" transform="translate(-577.15 -394.45)"/><path class="cls-1" d="M1062.28,665.67c-69.28-17.21-197-13.71-271.81-4.21-6.42.79-11.46-5.31-9.2-11.17,1-2.56,1.91-5.06,2.73-7.45,9.32-26.5,36-93,39.48-102.57a1.77,1.77,0,0,0-1.23-2.31c-25-6.32-27.17-6.68-36.5-7.6a9,9,0,0,0-9.65,7.24c-2.21,12.86-15.25,45.22-27.61,77.95l-1.11,2.21a11.47,11.47,0,0,1-5.48,4.58c-6.51,2.51-14.15-4.1-16.79-6.34-15-12.69-17.89-64.85,7.42-114l0-.09,1.14-2.17C745.82,477,763.43,455.61,787.42,445c10.92-4.84,23.16-7.54,35.14-6.76,4.15.27,8.41.68,12.31,2.22,4.41,1.73,7.13,4.71,7.07,9.63,0,2.23-.57,4.41-.82,6.62a22.79,22.79,0,0,0,1.54,11.69,21.55,21.55,0,0,0,17.88,12.5,49.15,49.15,0,0,0,11.37-.71H872c5.65-1.32,10.82-4,14.19-7.95,4.3-5,5.11-11.39,4.42-17.71-.87-8-2.93-17.11-6.9-24.05a65.52,65.52,0,0,0-6.79-9.68,93.5,93.5,0,0,0-50.25-25.32l-.19,0c-18.19-2.63-38.2.27-58,7.6l-.08,0c-22.34,8.82-47.83,25.2-76.25,53.05-16.78,18.86-30.06,41.06-37.28,65.13-11.88,39.56-11.73,98.54,19.12,118.21,4.55,2.89,26.72,15.75,49.26,7.83a45.45,45.45,0,0,0,12-6.41,1.75,1.75,0,0,1,2.69,2c-2,5.08-4.23,10.52-6.29,16.34a8.59,8.59,0,0,1-7.29,5.55c-36.44,3.95-71.41,14.63-99.16,32.59-61.78,39.93-68.18,118.87,5.78,118.87,51.46,0,98.67-59.89,128.58-117.64a8.74,8.74,0,0,1,7.81-4.65c97.14.22,226.44,28.35,330.65,67.25C1112.07,766.09,1175.05,693.6,1062.28,665.67Zm-354.2,46.78c-16.75,39.67-37.92,81.26-62.48,81.26-37.28,0-39.2-50.87,6.81-79.15,13.58-8.48,29.6-12.79,47.26-13.64A8.43,8.43,0,0,1,708.08,712.45Z" transform="translate(-577.15 -394.45)"/></svg>