<svg id="Layer_1" data-name="Layer 1" xmlns="http://www.w3.org/2000/svg" viewBox="0 0 650.49 437.68"><defs><style>.cls-1{fill:#faa73e;}.cls-2{font-size:42.03px;fill:#231f20;font-family:SVN-Beloved;}.cls-3{fill:#018744;}</style></defs><path class="cls-1" d="M797.6,487.34c-.09.28-.29.86-.62,1.77-9.26,24.68-18.32,63.54-24.64,88.94-.74,2.89-1.35,5.36-1.85,7.5-11.08.76-21.62,1.66-31.34,2.62-.47-4.46.11-9.76,1.73-15.95,15.14-58,19.87-76.81,23-91.5.36-1.51,1.66-4.82,6.73-4.89.23,0,20.19-3.34,25.74,4.11A8.11,8.11,0,0,1,797.6,487.34Z" transform="translate(-506.19 -330.8)"/><path class="cls-1" d="M870.16,503.79c2.31-7.22,1.76-14-1.68-19.39s-9.53-8.68-16.68-8.85c-.4,0-.8,0-1.2,0-15.7.23-45.83,12.64-59.07,57.81-5,17.24-4.71,36.42.15,50.24,8.45-.5,17.11-.9,25.88-1.25-1-4.69-.67-16.48,7.43-46,3.38-12.34,7.07-25.65,11.26-34.38,0,.12.1.22.15.35,2,4.31,7.5,6.57,11.94,7.72-.93,4.92-3,12.39-5.47,21.17-.9,3.29-1.9,6.9-3,10.76C836.8,553.17,831,574.24,824.36,582c9.93-.32,19.94-.57,29.95-.73,7.85-8.67,14.8-20.51,19.46-36.41C878.74,527.74,877.51,514,870.16,503.79Z" transform="translate(-506.19 -330.8)"/><path class="cls-1" d="M1140.66,486.39a37.62,37.62,0,0,0-4.89-5.87,101,101,0,0,0-30.38-21.81,108,108,0,0,0-50.51-10.23,99.52,99.52,0,0,0-81.6,51c-4.92,9-8.52,18.71-12.64,28.1a105.84,105.84,0,0,1-5.85,12c-.6,1-5.12,7.78-6,3.36a4.67,4.67,0,0,1,.28-2.18c4.14-13.89,21.3-47.86-3.37-51.71l-1.29-.18c-3.4-.4-9.35,2-12.62,4.88-2.75,2.44-6.87-.57-5.6-4.06l0-.06c2.58-7.91-28.13-9.59-28.32-8.84-4.41,19.74-13.6,47.94-18.93,69.92-3.48,14.26-2.57,23.53.69,29.16a3.44,3.44,0,0,0,2.92,1.7c4.14.1,8.38.23,12.68.4a3.55,3.55,0,0,0,3.6-2.81c.14-.67.3-1.39.48-2.17a2.13,2.13,0,0,1,.07-.27c14.7-49.55,25.9-74.12,34.54-74.12,5.89,0-2.21,9.21-10.48,36.08-6.38,20.83-4.85,35.81-1.32,43.21a3.48,3.48,0,0,0,2.82,1.93l11.39,1.09a3.38,3.38,0,0,0,2.36-.63,64,64,0,0,0,8.28-8c6.07-6.58,9.51-13.26,15.5-22.94,4-6.42,7.34-11.81,7.44-12,9.58-15.1,17.43-25.21,34.55-41.87,15.16-14.73,33.28-21.44,53.87-23.45a132,132,0,0,1,30.9.64,128.85,128.85,0,0,1,15.19,3.06c4.64,1.22,9.35,3.7,14,4.58a229,229,0,0,0-43.31-4.08c-15.27.11-30.73,2.45-44.85,8.56-8.09,3.52-14.55,8.59-19.21,16.19-5.44,8.87-3.62,21.2,5.06,26.76,5.88,3.78,14,6.7,24.95,6.54,30-.4,50.22-19.21,67-35.69a41.59,41.59,0,0,1,31.19-12.38c.9.05,2.41.55,2.92-.11a.62.62,0,0,0,.13-.32C1142.46,489,1141.1,487.08,1140.66,486.39Z" transform="translate(-506.19 -330.8)"/><text class="cls-2" transform="translate(140.84 421.29) scale(1.04 1)">Ngon khó cưỡng, dinh dưỡng vượt trội</text><path class="cls-1" d="M592.54,645.13" transform="translate(-506.19 -330.8)"/><path class="cls-3" d="M808.51,468.91a56.4,56.4,0,0,1-18.08-14c-4.57-5.34-8.13-11.52-7.57-19a10.73,10.73,0,0,1,5.61-8.95,14.92,14.92,0,0,1,10.61-1.89,14.07,14.07,0,0,1,9.39,7.14c2,3.55,4,7.15,6,10.5,5.27,8.7,11.08,15.78,20.59,16.14a.5.5,0,0,0,.27-.92c-6.08-3.24-13.28-8.1-18.08-16.71a31.49,31.49,0,0,1-1.51-3c-1.59-3.58-3.17-7.26-6-10a18,18,0,0,0-5.32-3.56,30.41,30.41,0,0,0-6.11-1.88c-.93-.2-1.88-.41-2.82-.53l-3.17-.42c-.13,0-.47,0-.55-.13s.08-.21.2-.24c1.18-.28,2.35-.64,3.55-.81a38.9,38.9,0,0,1,8.82-.13,38.41,38.41,0,0,1,7.23,1.35,27.59,27.59,0,0,1,6.68,2.86,19,19,0,0,1,5.3,4.64,16.44,16.44,0,0,1,2.75,5.52c.94,3.32,1,6.93,2.27,10.14a12.66,12.66,0,0,0,4.49,5.52c6.68,4.69,15.24,3.21,18.28,8.53,2.25,3.92-.47,8-3.9,10.27-6.33,4.16-14.65,4.91-21.85,4.34A48.09,48.09,0,0,1,808.51,468.91Z" transform="translate(-506.19 -330.8)"/><path class="cls-1" d="M991.32,602c-69.28-17.21-197-13.71-271.81-4.21-6.42.79-11.46-5.31-9.2-11.17,1-2.56,1.91-5.06,2.73-7.45,9.32-26.5,36-93,39.48-102.57a1.77,1.77,0,0,0-1.23-2.31c-25-6.32-27.17-6.68-36.5-7.6a9,9,0,0,0-9.65,7.24c-2.21,12.86-15.25,45.22-27.61,77.95l-1.11,2.21a11.47,11.47,0,0,1-5.48,4.58c-6.51,2.51-14.15-4.1-16.79-6.34-15-12.69-17.89-64.85,7.42-114l0-.09,1.14-2.17c12.11-22.72,29.72-44.09,53.71-54.74,10.92-4.85,23.17-7.55,35.14-6.77,4.15.27,8.41.68,12.31,2.22,4.41,1.74,7.13,4.71,7.07,9.63a64.18,64.18,0,0,1-.82,6.63,22.73,22.73,0,0,0,1.54,11.68,21.56,21.56,0,0,0,17.88,12.51,49.15,49.15,0,0,0,11.37-.71H801c5.65-1.32,10.82-4,14.19-7.95,4.3-5,5.11-11.39,4.42-17.71-.87-8-2.93-17.11-6.9-24a65.52,65.52,0,0,0-6.79-9.68,93.5,93.5,0,0,0-50.25-25.32l-.19,0c-18.19-2.63-38.2.27-58,7.6l-.08,0c-22.34,8.82-47.83,25.2-76.25,53.05-16.78,18.86-30.06,41.06-37.28,65.13C572,497.13,572.13,556.11,603,575.78c4.55,2.89,26.72,15.75,49.26,7.83a45.45,45.45,0,0,0,12-6.41,1.75,1.75,0,0,1,2.69,2c-2,5.08-4.23,10.52-6.29,16.34a8.59,8.59,0,0,1-7.29,5.55C616.92,605,582,615.72,554.2,633.68,492.42,673.61,486,752.55,560,752.55c51.46,0,98.67-59.89,128.58-117.64a8.74,8.74,0,0,1,7.81-4.65c97.14.22,226.44,28.35,330.65,67.25C1041.11,702.45,1104.09,630,991.32,602Zm-354.2,46.78c-16.75,39.67-37.92,81.26-62.48,81.26-37.28,0-39.2-50.87,6.81-79.15,13.58-8.48,29.6-12.79,47.26-13.64A8.43,8.43,0,0,1,637.12,648.81Z" transform="translate(-506.19 -330.8)"/></svg>